PathFileType	4	(X/Y/Z)	C:/Users/beibeiliu/ov580/test_trc/User2\sequence.16_training_dense_right.trc
DataRate	CameraRate	NumFrames	NumMarkers	Units	OrigDataRate	OrigDataStartFrame	OrigNumFrames
120	120	12	19	mm	120	155	411
Frame#	Time	ThumbCMC			ThumbMCP			ThumbIP			ThumbTip			IndexMCP			IndexPIP			IndexTip			MiddleMCP			MiddlePIP			MiddleTip			RingMCP			RingPIP			RingTip			PinkyMCP			PinkyPIP			PinkyTip			BackHand1			BackHand2			BackHand3	
		X0	Y0	Z0	X1	Y1	Z1	X2	Y2	Z2	X3	Y3	Z3	X4	Y4	Z4	X5	Y5	Z5	X6	Y6	Z6	X7	Y7	Z7	X8	Y8	Z8	X9	Y9	Z9	X10	Y10	Z10	X11	Y11	Z11	X12	Y12	Z12	X13	Y13	Z13	X14	Y14	Z14	X15	Y15	Z15	X16	Y16	Z16	X17	Y17	Z17	X18	Y18	Z18	
154	1.28333	45.7422	2.77047	60.4828	20.088	1.74621	41.7832	-5.55125	0.234259	18.5291	-25.4051	-2.67199	3.59978	53.4316	10.1475	-28.3593	48.9535	11.3149	-54.711	50.8792	8.71206	-81.8483	72.7604	-20.5562	-32.1202	64.6696	-55.3208	-29.9848	59.4747	-53.8184	12.2157	90.2393	-39.3108	-20.152	81.0921	-65.7757	-4.77023	73.3728	-47.0906	26.7908	106.746	-46.1734	-6.60664	89.5104	-64.7473	13.5334	87.5275	-42.5762	37.6573	105.46	6.13572	22.6092	113.425	12.8683	55.6853	73.2365	20.9829	41.7796	
155	1.29167	47.6585	0.308508	59.0785	21.3384	-1.65197	39.6161	-4.64761	-3.68851	15.1304	-19.4372	-10.0739	-0.757183	58.5451	5.69342	-28.6289	57.119	3.63065	-57.3271	55.3349	2.90229	-80.3741	74.5881	-25.3433	-34.2377	70.6629	-62.4646	-27.6169	64.2081	-57.6684	12.7339	97.1091	-43.1439	-18.201	84.2781	-69.9109	-2.48101	78.0679	-48.6052	28.3836	111.767	-47.8577	-6.07815	92.9679	-67.7485	16.7631	89.376	-42.6166	38.1919	110.992	4.23629	18.3751	114.01	11.1266	55.1926	76.7246	16.6485	41.1226	
156	1.3	46.0597	-0.143023	55.1186	24.8719	-5.994	38.8155	0.543464	-9.71052	13.7207	-17.3007	-14.0587	-0.855084	61.7113	0.529615	-30.0417	63.309	-1.92629	-59.3129	64.9105	-6.30164	-82.9819	82.2001	-32.1946	-32.4389	71.7671	-64.8376	-29.2009	69.5336	-61.2123	15.0957	95.816	-50.5745	-19.4493	83.7275	-72.552	0.77759	78.9108	-51.1719	28.8135	114.831	-53.0033	-3.28314	94.2722	-70.1568	15.3721	91.2423	-45.9186	40.8082	111.318	0.683535	18.3012	112.364	10.3575	55.1042	79.1774	16.622	37.2426	
157	1.30833	45.8078	-1.19909	56.337	24.5315	-6.68095	31.8366	1.18589	-11.8213	7.86133	-14.2521	-19.089	-7.46967	67.5186	-6.70085	-27.1564	66.8525	-9.58531	-57.0359	72.6586	-15.0609	-85.5612	83.4439	-39.7714	-31.6382	77.5284	-73.3998	-19.7151	71.5263	-64.3454	19.4102	103.658	-54.8178	-13.4881	88.5561	-77.5604	2.0216	83.258	-56.9478	33.4333	118.293	-57.4691	-0.116561	97.0982	-74.3359	18.875	92.5783	-52.8024	42.0195	113.939	0.156477	23.6758	112.952	12.7295	55.5459	76.808	13.7305	36.4614	
158	1.31667	46.7827	-3.82735	52.1726	24.4386	-9.1619	37.4579	3.14965	-17.4919	10.5968	-16.3907	-23.5704	-5.2037	70.9617	-11.3765	-28.306	69.9903	-16.1342	-52.482	79.909	-20.9245	-80.5594	89.2748	-42.3977	-25.8089	81.3385	-77.3957	-16.4298	74.4495	-67.2448	23.5723	104.559	-57.2923	-10.1352	91.45	-79.3855	6.78701	80.6069	-54.8454	36.287	121.552	-59.8873	4.26916	98.3769	-75.5581	25.1591	96.0053	-54.0009	47.688	114.739	-2.83495	20.594	111.803	9.76318	54.6511	76.4412	11.3096	36.2685	
159	1.325	46.2168	-3.08061	58.8688	28.3761	-12.3574	37.7996	5.13449	-19.3625	16.8394	-15.2457	-26.9436	-2.44387	69.3628	-13.0048	-26.347	73.1508	-18.4029	-48.3141	78.6287	-22.1796	-78.2642	88.9007	-41.3878	-22.0982	83.2946	-79.367	-8.19548	75.756	-68.6048	25.8515	103.913	-55.1753	-6.86657	92.7384	-79.9418	12.3433	84.8985	-58.4444	39.8317	120.517	-55.3062	6.85737	102.914	-76.4495	29.589	93.9293	-51.0983	47.1643	116.106	-1.18986	27.0971	116.269	10.5131	56.5918	81.4242	11.5542	36.8894	
160	1.33333	49.06	-4.13225	58.5179	22.5086	-9.86254	44.3193	-1.2598	-16.6383	21.4923	-18.3397	-25.1758	4.2978	66.1946	-9.59218	-22.5408	71.5215	-15.1533	-46.3855	79.1461	-18.0021	-77.2574	84.5526	-41.2591	-22.2045	79.2032	-75.1844	-8.63232	75.6093	-66.4688	27.1099	102.676	-54.884	-7.20689	92.0075	-76.0017	12.0699	84.8292	-53.6148	41.427	120.89	-54.2268	7.6667	103.505	-72.0143	26.4374	96.7636	-51.5276	49.525	111.876	3.93326	29.2748	114.637	14.5996	57.6012	75.0695	14.0331	42.8412	
161	1.34167	46.739	-1.05591	66.3788	22.3171	-8.06823	46.9013	-1.39418	-14.6511	21.6201	-16.739	-22.7146	12.0187	63.1115	-2.80209	-18.0377	69.0053	-7.70249	-44.3161	73.7639	-10.6457	-74.9729	80.9569	-33.9298	-21.349	83.0564	-67.0087	-12.1605	71.7927	-63.5642	26.5225	102.187	-46.2648	-6.54932	93.1329	-70.9106	11.5149	84.9853	-54.0544	40.211	118.114	-47.4886	6.55129	106.189	-68.2699	27.632	97.9073	-47.1321	51.107	107.006	8.74762	27.7998	110.988	21.0594	64.4365	73.4006	19.439	47.4289	
162	1.35	46.5563	3.13742	67.4437	20.9589	-3.07583	51.956	-0.759624	-9.82242	29.1614	-17.4431	-18.4458	16.0735	59.2679	4.77976	-13.699	62.5541	2.61179	-41.1274	61.2858	1.90119	-67.664	78.5442	-24.4747	-21.1528	75.1778	-59.1617	-14.9393	69.2677	-55.4591	27.4428	96.0741	-38.054	-8.9608	88.9162	-63.3735	6.56565	82.4539	-43.7655	39.3635	119.236	-38.0563	3.8196	101.831	-60.8231	24.0984	95.4491	-38.5275	48.2809	108.808	14.0426	27.4136	112.565	25.6092	63.2619	70.2574	21.956	47.4255	
163	1.35833	44.0874	7.22393	73.8521	20.6092	1.5117	53.2042	-2.51538	-5.52844	30.4742	-21.3718	-12.646	19.603	49.1964	15.5648	-16.2963	51.6221	14.551	-39.9923	53.864	15.778	-70.4146	69.667	-11.5101	-21.2001	71.9424	-48.9699	-18.25	66.2261	-51.0782	20.2963	92.6081	-28.7822	-12.0601	87.5622	-55.7534	4.61427	82.834	-41.0572	36.4358	110.844	-30.9217	0.0691456	96.537	-52.9112	19.3015	91.5052	-32.4758	47.1966	102.947	22.4608	29.8931	109.919	30.4482	61.8824	70.8046	27.6028	54.4094	
164	1.36667	45.944	10.6142	74.446	18.8942	5.19246	58.8693	-7.20117	0.651779	35.1219	-22.5235	-7.66271	25.2172	47.4627	26.0956	-9.85634	40.6319	27.9835	-39.1476	40.2999	28.5713	-63.5408	63.3879	-2.64682	-22.0662	61.7078	-38.1131	-20.437	63.5689	-41.7721	20.4902	85.8541	-19.8686	-14.0426	81.3682	-46.286	1.19878	78.8975	-31.1489	35.2192	106.425	-21.9721	-3.5809	96.4398	-48.0605	16.2102	90.1079	-25.9775	45.2864	102.756	28.9891	29.8569	111.34	33.4706	66.4357	70.1997	32.6885	57.1266	
165	1.375	46.2232	16.108	75.8292	17.3683	10.0221	59.4209	-11.9523	7.03542	36.5051	-26.9585	-0.714559	23.0194	41.1144	35.3744	-7.17588	36.4572	40.2794	-37.42	32.9386	42.1527	-61.6355	65.663	9.24444	-21.5754	60.7894	-29.1109	-22.9791	63.1445	-34.5066	16.1867	85.2988	-10.7966	-16.211	75.2951	-36.4476	-4.65865	78.2737	-24.3304	31.8066	98.3923	-15.9643	-6.45568	89.1562	-38.3122	10.597	89.2749	-20.7866	42.0349	99.9672	35.3724	32.7447	110.699	36.8453	62.6965	69.6137	38.7136	56.0136	
